# xmcd
#
# Track frame offsets:
#	150
#	21791
#	39021
#	56399
#	70034
#	87150
#	109345
#	128169
#	146861
#	169629
#	189107
#	204910
#	220623
#	240945
#	259220
#	277858
#	294474
#
# Disc length: 4132 seconds
#
# Revision: 1
# Processed by: cddbd v1.5.2PL0 Copyright (c) Steve Scherf et al.
# Submitted via: audiograbber 1.83.01
#
DISCID=e1102211
DTITLE=Various Artist - CBEP490-02
DYEAR=2007
DGENRE=Country
TTITLE0=Tim McGraw - Last Dollar
TTITLE1=Rascal Flatts - Stand
TTITLE2=Martina McBride - How I Feel
TTITLE3=Blaine Larsen - Spoken Like A Man
TTITLE4=Billy Currington - Good Directions
TTITLE5=Sugarland - Stay
TTITLE6=Jake Owen - Startin' With Me
TTITLE7=Kellie Pickler - I Wonder
TTITLE8=Emerson Drive - Moments
TTITLE9=Miranda Lambert - Famous In A Small Town
TTITLE10=Montgomery Gentry - Lucky Man
TTITLE11=Craig Morgan - Tough
TTITLE12=Sara Evans - Missing Missouri
TTITLE13=Keith Urban - Stupid Boy
TTITLE14=Wreckers - Tennessee
TTITLE15=Eric Church - Two Pink Lines
TTITLE16=Jason Aldean - Johnny Cash
EXTD=
EXTT0=
EXTT1=
EXTT2=
EXTT3=
EXTT4=
EXTT5=
EXTT6=
EXTT7=
EXTT8=
EXTT9=
EXTT10=
EXTT11=
EXTT12=
EXTT13=
EXTT14=
EXTT15=
EXTT16=
PLAYORDER=
